<svg xmlns="http://www.w3.org/2000/svg" xml:space="preserve" viewBox="0 0 512 512">
  <path d="M167 39h33.4v33.4H167z" />
  <path d="M200.3 72.3h33.4v33.4h-33.4zM167 105.7h33.4v33.4H167zM200.3 139.1h33.4v33.4h-33.4zM267.1 105.7h33.4v33.4h-33.4zM300.5 72.3h33.4v33.4h-33.4zM300.5 139.1h33.4v33.4h-33.4zM100.2 72.3h33.4v33.4h-33.4zM66.8 105.7h33.4v33.4H66.8zM100.2 139.1h33.4v33.4h-33.4zM411.8 272.7h66.8v-33.4h-66.8v-33.4H0v200.4h33.4v-167h345v167h100.2v-33.4h-66.8zM478.6 272.7H512v100.2h-33.4zM33.4 406.3h33.4v33.4H33.4zM66.8 439.7h33.4v33.4H66.8zM100.2 473h211.5v33.4H100.2zM311.7 439.7h33.4v33.4h-33.4zM345 406.3h33.4v33.4H345zM200.3 5.6h33.4V39h-33.4z" />
</svg>